{
    "asset" : {
        "generator" : "Khronos glTF Blender I/O v1.6.16",
        "version" : "2.0"
    },
    "scene" : 0,
    "scenes" : [
        {
            "name" : "Scene",
            "nodes" : [
                0
            ]
        }
    ],
    "nodes" : [
        {
            "mesh" : 0,
            "name" : "Cube"
        }
    ],
    "materials" : [
        {
            "doubleSided" : true,
            "name" : "Material",
            "normalTexture" : {
                "index" : 0
            },
            "pbrMetallicRoughness" : {
                "baseColorTexture" : {
                    "index" : 1
                },
                "metallicFactor" : 0.46136361360549927,
                "roughnessFactor" : 0.029545456171035767
            }
        }
    ],
    "meshes" : [
        {
            "name" : "Cube",
            "primitives" : [
                {
                    "attributes" : {
                        "POSITION" : 0,
                        "NORMAL" : 1,
                        "TEXCOORD_0" : 2
                    },
                    "indices" : 3,
                    "material" : 0
                }
            ]
        }
    ],
    "textures" : [
        {
            "sampler" : 0,
            "source" : 0
        },
        {
            "sampler" : 0,
            "source" : 1
        }
    ],
    "images" : [
        {
            "mimeType" : "image/png",
            "name" : "TilesCeramicHerringbone002_NRM_1K",
            "uri" : "TilesCeramicHerringbone002_NRM_1K.png"
        },
        {
            "mimeType" : "image/png",
            "name" : "TilesCeramicHerringbone002_COL_1K",
            "uri" : "TilesCeramicHerringbone002_COL_1K.png"
        }
    ],
    "accessors" : [
        {
            "bufferView" : 0,
            "componentType" : 5126,
            "count" : 1258,
            "max" : [
                3.000000476837158,
                3.000000476837158,
                3.000000476837158
            ],
            "min" : [
                -3.000000476837158,
                -3.000000476837158,
                -3.000000476837158
            ],
            "type" : "VEC3"
        },
        {
            "bufferView" : 1,
            "componentType" : 5126,
            "count" : 1258,
            "type" : "VEC3"
        },
        {
            "bufferView" : 2,
            "componentType" : 5126,
            "count" : 1258,
            "type" : "VEC2"
        },
        {
            "bufferView" : 3,
            "componentType" : 5123,
            "count" : 1920,
            "type" : "SCALAR"
        }
    ],
    "bufferViews" : [
        {
            "buffer" : 0,
            "byteLength" : 15096,
            "byteOffset" : 0
        },
        {
            "buffer" : 0,
            "byteLength" : 15096,
            "byteOffset" : 15096
        },
        {
            "buffer" : 0,
            "byteLength" : 10064,
            "byteOffset" : 30192
        },
        {
            "buffer" : 0,
            "byteLength" : 3840,
            "byteOffset" : 40256
        }
    ],
    "samplers" : [
        {
            "magFilter" : 9729,
            "minFilter" : 9987
        }
    ],
    "buffers" : [
        {
            "byteLength" : 44096,
            "uri" : "materialcube.bin"
        }
    ]
}
