{
    "asset" : {
        "generator" : "Khronos glTF Blender I/O v1.6.16",
        "version" : "2.0"
    },
    "scene" : 0,
    "scenes" : [
        {
            "name" : "Scene",
            "nodes" : [
                0,
                1,
                2,
                3,
                4,
                5,
                6,
                7
            ]
        }
    ],
    "nodes" : [
        {
            "mesh" : 0,
            "name" : "Cube",
            "scale" : [
                0.41879701614379883,
                0.41879701614379883,
                0.41879701614379883
            ],
            "translation" : [
                -2.91190242767334,
                0.4631213843822479,
                -2.0265235900878906
            ]
        },
        {
            "name" : "Camera",
            "rotation" : [
                0.6013647317886353,
                -0.18113312125205994,
                0.14238126575946808,
                0.7650351524353027
            ],
            "translation" : [
                -7.9457197189331055,
                5.47745418548584,
                15.16843318939209
            ]
        },
        {
            "mesh" : 1,
            "name" : "Cube.001",
            "translation" : [
                0,
                1.0659528970718384,
                0
            ]
        },
        {
            "mesh" : 2,
            "name" : "Sphere",
            "translation" : [
                -1.3123581409454346,
                1.0485919713974,
                3.9247288703918457
            ]
        },
        {
            "mesh" : 3,
            "name" : "Torus",
            "scale" : [
                1,
                1.3060853481292725,
                1.0775883197784424
            ],
            "translation" : [
                3.134223222732544,
                0.3497915267944336,
                -2.8468844890594482
            ]
        },
        {
            "mesh" : 4,
            "name" : "Cube.002",
            "scale" : [
                0.5384252667427063,
                0.5384252667427063,
                0.5384252667427063
            ],
            "translation" : [
                2.902207136154175,
                0.6015170216560364,
                2.4479191303253174
            ]
        },
        {
            "mesh" : 5,
            "name" : "Plane",
            "scale" : [
                7.510221481323242,
                7.510221481323242,
                8.097134590148926
            ],
            "translation" : [
                -0.0019692345522344112,
                0.012073013931512833,
                0.00880881492048502
            ]
        },
        {
            "mesh" : 6,
            "name" : "Cone",
            "translation" : [
                -0.1571788787841797,
                1.0487717390060425,
                -4.611556529998779
            ]
        }
    ],
    "materials" : [
        {
            "doubleSided" : true,
            "name" : "White Clay",
            "pbrMetallicRoughness" : {
                "baseColorFactor" : [
                    0.800000011920929,
                    0.800000011920929,
                    0.800000011920929,
                    1
                ],
                "metallicFactor" : 0,
                "roughnessFactor" : 0.8045452833175659
            }
        },
        {
            "doubleSided" : true,
            "name" : "Metal",
            "pbrMetallicRoughness" : {
                "baseColorFactor" : [
                    0.800000011920929,
                    0.800000011920929,
                    0.800000011920929,
                    1
                ],
                "roughnessFactor" : 0.06136399880051613
            }
        },
        {
            "doubleSided" : true,
            "name" : "Plastic",
            "pbrMetallicRoughness" : {}
        }
    ],
    "meshes" : [
        {
            "name" : "Cube",
            "primitives" : [
                {
                    "attributes" : {
                        "POSITION" : 0,
                        "NORMAL" : 1,
                        "TEXCOORD_0" : 2
                    },
                    "indices" : 3,
                    "material" : 0
                }
            ]
        },
        {
            "name" : "Cube.001",
            "primitives" : [
                {
                    "attributes" : {
                        "POSITION" : 4,
                        "NORMAL" : 5,
                        "TEXCOORD_0" : 6
                    },
                    "indices" : 3,
                    "material" : 0
                }
            ]
        },
        {
            "name" : "Sphere",
            "primitives" : [
                {
                    "attributes" : {
                        "POSITION" : 7,
                        "NORMAL" : 8,
                        "TEXCOORD_0" : 9
                    },
                    "indices" : 10,
                    "material" : 1
                }
            ]
        },
        {
            "name" : "Torus",
            "primitives" : [
                {
                    "attributes" : {
                        "POSITION" : 11,
                        "NORMAL" : 12,
                        "TEXCOORD_0" : 13
                    },
                    "indices" : 14,
                    "material" : 2
                }
            ]
        },
        {
            "name" : "Cube.002",
            "primitives" : [
                {
                    "attributes" : {
                        "POSITION" : 15,
                        "NORMAL" : 16,
                        "TEXCOORD_0" : 17
                    },
                    "indices" : 3,
                    "material" : 0
                }
            ]
        },
        {
            "name" : "Plane",
            "primitives" : [
                {
                    "attributes" : {
                        "POSITION" : 18,
                        "NORMAL" : 19,
                        "TEXCOORD_0" : 20
                    },
                    "indices" : 21
                }
            ]
        },
        {
            "name" : "Cone",
            "primitives" : [
                {
                    "attributes" : {
                        "POSITION" : 22,
                        "NORMAL" : 23,
                        "TEXCOORD_0" : 24
                    },
                    "indices" : 25
                }
            ]
        }
    ],
    "accessors" : [
        {
            "bufferView" : 0,
            "componentType" : 5126,
            "count" : 24,
            "max" : [
                1,
                1,
                1
            ],
            "min" : [
                -1,
                -1,
                -1
            ],
            "type" : "VEC3"
        },
        {
            "bufferView" : 1,
            "componentType" : 5126,
            "count" : 24,
            "type" : "VEC3"
        },
        {
            "bufferView" : 2,
            "componentType" : 5126,
            "count" : 24,
            "type" : "VEC2"
        },
        {
            "bufferView" : 3,
            "componentType" : 5123,
            "count" : 36,
            "type" : "SCALAR"
        },
        {
            "bufferView" : 4,
            "componentType" : 5126,
            "count" : 24,
            "max" : [
                1,
                1,
                1
            ],
            "min" : [
                -1,
                -1,
                -1
            ],
            "type" : "VEC3"
        },
        {
            "bufferView" : 5,
            "componentType" : 5126,
            "count" : 24,
            "type" : "VEC3"
        },
        {
            "bufferView" : 6,
            "componentType" : 5126,
            "count" : 24,
            "type" : "VEC2"
        },
        {
            "bufferView" : 7,
            "componentType" : 5126,
            "count" : 2077,
            "max" : [
                0.9999997019767761,
                1,
                0.9999994039535522
            ],
            "min" : [
                -0.9999990463256836,
                -1,
                -0.9999987483024597
            ],
            "type" : "VEC3"
        },
        {
            "bufferView" : 8,
            "componentType" : 5126,
            "count" : 2077,
            "type" : "VEC3"
        },
        {
            "bufferView" : 9,
            "componentType" : 5126,
            "count" : 2077,
            "type" : "VEC2"
        },
        {
            "bufferView" : 10,
            "componentType" : 5123,
            "count" : 11520,
            "type" : "SCALAR"
        },
        {
            "bufferView" : 11,
            "componentType" : 5126,
            "count" : 2425,
            "max" : [
                1.25,
                0.25,
                1.25
            ],
            "min" : [
                -1.25,
                -0.25,
                -1.25
            ],
            "type" : "VEC3"
        },
        {
            "bufferView" : 12,
            "componentType" : 5126,
            "count" : 2425,
            "type" : "VEC3"
        },
        {
            "bufferView" : 13,
            "componentType" : 5126,
            "count" : 2425,
            "type" : "VEC2"
        },
        {
            "bufferView" : 14,
            "componentType" : 5123,
            "count" : 13824,
            "type" : "SCALAR"
        },
        {
            "bufferView" : 15,
            "componentType" : 5126,
            "count" : 24,
            "max" : [
                1,
                1,
                1
            ],
            "min" : [
                -1,
                -1,
                -1
            ],
            "type" : "VEC3"
        },
        {
            "bufferView" : 16,
            "componentType" : 5126,
            "count" : 24,
            "type" : "VEC3"
        },
        {
            "bufferView" : 17,
            "componentType" : 5126,
            "count" : 24,
            "type" : "VEC2"
        },
        {
            "bufferView" : 18,
            "componentType" : 5126,
            "count" : 4,
            "max" : [
                1,
                0,
                1
            ],
            "min" : [
                -1,
                0,
                -1
            ],
            "type" : "VEC3"
        },
        {
            "bufferView" : 19,
            "componentType" : 5126,
            "count" : 4,
            "type" : "VEC3"
        },
        {
            "bufferView" : 20,
            "componentType" : 5126,
            "count" : 4,
            "type" : "VEC2"
        },
        {
            "bufferView" : 21,
            "componentType" : 5123,
            "count" : 6,
            "type" : "SCALAR"
        },
        {
            "bufferView" : 22,
            "componentType" : 5126,
            "count" : 65,
            "max" : [
                1,
                1,
                1
            ],
            "min" : [
                -1,
                -1,
                -1
            ],
            "type" : "VEC3"
        },
        {
            "bufferView" : 23,
            "componentType" : 5126,
            "count" : 65,
            "type" : "VEC3"
        },
        {
            "bufferView" : 24,
            "componentType" : 5126,
            "count" : 65,
            "type" : "VEC2"
        },
        {
            "bufferView" : 25,
            "componentType" : 5123,
            "count" : 186,
            "type" : "SCALAR"
        }
    ],
    "bufferViews" : [
        {
            "buffer" : 0,
            "byteLength" : 288,
            "byteOffset" : 0
        },
        {
            "buffer" : 0,
            "byteLength" : 288,
            "byteOffset" : 288
        },
        {
            "buffer" : 0,
            "byteLength" : 192,
            "byteOffset" : 576
        },
        {
            "buffer" : 0,
            "byteLength" : 72,
            "byteOffset" : 768
        },
        {
            "buffer" : 0,
            "byteLength" : 288,
            "byteOffset" : 840
        },
        {
            "buffer" : 0,
            "byteLength" : 288,
            "byteOffset" : 1128
        },
        {
            "buffer" : 0,
            "byteLength" : 192,
            "byteOffset" : 1416
        },
        {
            "buffer" : 0,
            "byteLength" : 24924,
            "byteOffset" : 1608
        },
        {
            "buffer" : 0,
            "byteLength" : 24924,
            "byteOffset" : 26532
        },
        {
            "buffer" : 0,
            "byteLength" : 16616,
            "byteOffset" : 51456
        },
        {
            "buffer" : 0,
            "byteLength" : 23040,
            "byteOffset" : 68072
        },
        {
            "buffer" : 0,
            "byteLength" : 29100,
            "byteOffset" : 91112
        },
        {
            "buffer" : 0,
            "byteLength" : 29100,
            "byteOffset" : 120212
        },
        {
            "buffer" : 0,
            "byteLength" : 19400,
            "byteOffset" : 149312
        },
        {
            "buffer" : 0,
            "byteLength" : 27648,
            "byteOffset" : 168712
        },
        {
            "buffer" : 0,
            "byteLength" : 288,
            "byteOffset" : 196360
        },
        {
            "buffer" : 0,
            "byteLength" : 288,
            "byteOffset" : 196648
        },
        {
            "buffer" : 0,
            "byteLength" : 192,
            "byteOffset" : 196936
        },
        {
            "buffer" : 0,
            "byteLength" : 48,
            "byteOffset" : 197128
        },
        {
            "buffer" : 0,
            "byteLength" : 48,
            "byteOffset" : 197176
        },
        {
            "buffer" : 0,
            "byteLength" : 32,
            "byteOffset" : 197224
        },
        {
            "buffer" : 0,
            "byteLength" : 12,
            "byteOffset" : 197256
        },
        {
            "buffer" : 0,
            "byteLength" : 780,
            "byteOffset" : 197268
        },
        {
            "buffer" : 0,
            "byteLength" : 780,
            "byteOffset" : 198048
        },
        {
            "buffer" : 0,
            "byteLength" : 520,
            "byteOffset" : 198828
        },
        {
            "buffer" : 0,
            "byteLength" : 372,
            "byteOffset" : 199348
        }
    ],
    "buffers" : [
        {
            "byteLength" : 199720,
            "uri" : "Minimal.bin"
        }
    ]
}
