{
    "asset" : {
        "generator" : "Khronos glTF Blender I/O v0.9.36",
        "version" : "2.0"
    },
    "scene" : 0,
    "scenes" : [
        {
            "name" : "Scene",
            "nodes" : [
                0,
                1
            ]
        }
    ],
    "nodes" : [
        {
            "name" : "Camera",
            "rotation" : [
                0.483536034822464,
                0.33687159419059753,
                -0.20870360732078552,
                0.7804827094078064
            ],
            "translation" : [
                7.358891487121582,
                4.958309173583984,
                6.925790786743164
            ]
        },
        {
            "mesh" : 0,
            "name" : "Sphere",
            "rotation" : [
                0.22788922488689423,
                -0.1578858196735382,
                -0.9026207327842712,
                -0.32926344871520996
            ]
        }
    ],
    "materials" : [
        {
            "doubleSided" : true,
            "name" : "BlueTiles_SP.001",
            "normalTexture" : {
                "index" : 0,
                "texCoord" : 0
            },
            "pbrMetallicRoughness" : {
                "baseColorTexture" : {
                    "index" : 1,
                    "texCoord" : 0
                },
                "metallicRoughnessTexture" : {
                    "index" : 2,
                    "texCoord" : 0
                }
            }
        }
    ],
    "meshes" : [
        {
            "name" : "Sphere",
            "primitives" : [
                {
                    "attributes" : {
                        "POSITION" : 0,
                        "NORMAL" : 1,
                        "TEXCOORD_0" : 2
                    },
                    "indices" : 3,
                    "material" : 0
                }
            ]
        }
    ],
    "textures" : [
        {
            "source" : 0
        },
        {
            "source" : 1
        },
        {
            "source" : 2
        }
    ],
    "images" : [
        {
            "mimeType" : "image/jpeg",
            "name" : "Tiles_08_normal",
            "uri" : "Tiles_08_normal.jpg"
        },
        {
            "mimeType" : "image/jpeg",
            "name" : "Tiles_08_basecolor",
            "uri" : "Tiles_08_basecolor.jpg"
        },
        {
            "mimeType" : "image/jpeg",
            "name" : "Tiles_08_metallic-Tiles_08_roughness",
            "uri" : "Tiles_08_metallic-Tiles_08_roughness.jpg"
        }
    ],
    "accessors" : [
        {
            "bufferView" : 0,
            "componentType" : 5126,
            "count" : 2880,
            "max" : [
                1.000000238418579,
                1,
                1.0000003576278687
            ],
            "min" : [
                -0.9999998211860657,
                -1,
                -1
            ],
            "type" : "VEC3"
        },
        {
            "bufferView" : 1,
            "componentType" : 5126,
            "count" : 2880,
            "type" : "VEC3"
        },
        {
            "bufferView" : 2,
            "componentType" : 5126,
            "count" : 2880,
            "type" : "VEC2"
        },
        {
            "bufferView" : 3,
            "componentType" : 5123,
            "count" : 2880,
            "type" : "SCALAR"
        }
    ],
    "bufferViews" : [
        {
            "buffer" : 0,
            "byteLength" : 34560,
            "byteOffset" : 0
        },
        {
            "buffer" : 0,
            "byteLength" : 34560,
            "byteOffset" : 34560
        },
        {
            "buffer" : 0,
            "byteLength" : 23040,
            "byteOffset" : 69120
        },
        {
            "buffer" : 0,
            "byteLength" : 5760,
            "byteOffset" : 92160
        }
    ],
    "buffers" : [
        {
            "byteLength" : 97920,
            "uri" : "PbrSphere.bin"
        }
    ]
}
