{
    "asset" : {
        "generator" : "Khronos glTF Blender I/O v0.9.36",
        "version" : "2.0"
    },
    "scene" : 0,
    "scenes" : [
        {
            "name" : "Scene",
            "nodes" : [
                0,
                1,
                2
            ]
        }
    ],
    "nodes" : [
        {
            "name" : "Light",
            "rotation" : [
                0.16907575726509094,
                0.7558803558349609,
                -0.27217137813568115,
                0.570947527885437
            ],
            "translation" : [
                4.076245307922363,
                5.903861999511719,
                -1.0054539442062378
            ]
        },
        {
            "name" : "Camera",
            "rotation" : [
                0.483536034822464,
                0.33687159419059753,
                -0.20870360732078552,
                0.7804827094078064
            ],
            "translation" : [
                7.358891487121582,
                4.958309173583984,
                6.925790786743164
            ]
        },
        {
            "mesh" : 0,
            "name" : "Sphere",
            "scale" : [
                1.5612729787826538,
                1.5612729787826538,
                1.5612729787826538
            ]
        }
    ],
    "materials" : [
        {
            "doubleSided" : true,
            "name" : "Tiles",
            "normalTexture" : {
                "index" : 0,
                "texCoord" : 0
            },
            "pbrMetallicRoughness" : {
                "baseColorTexture" : {
                    "index" : 1,
                    "texCoord" : 0
                },
                "metallicFactor" : 0.90,
                "roughnessFactor" : 0.15
            }
        }
    ],
    "meshes" : [
        {
            "name" : "Sphere",
            "primitives" : [
                {
                    "attributes" : {
                        "POSITION" : 0,
                        "NORMAL" : 1,
                        "TEXCOORD_0" : 2
                    },
                    "indices" : 3,
                    "material" : 0
                }
            ]
        }
    ],
    "textures" : [
        {
            "source" : 0
        },
        {
            "source" : 1
        }
    ],
    "images" : [
        {
            "mimeType" : "image/png",
            "name" : "tile_normal",
            "uri" : "tile_normal.png"
        },
        {
            "mimeType" : "image/png",
            "name" : "tile_color",
            "uri" : "tile_color.png"
        }
    ],
    "accessors" : [
        {
            "bufferView" : 0,
            "componentType" : 5126,
            "count" : 9240,
            "max" : [
                0.9840621948242188,
                0.99614018201828,
                0.9840624332427979
            ],
            "min" : [
                -0.9840618371963501,
                -0.99614018201828,
                -0.9840619564056396
            ],
            "type" : "VEC3"
        },
        {
            "bufferView" : 1,
            "componentType" : 5126,
            "count" : 9240,
            "type" : "VEC3"
        },
        {
            "bufferView" : 2,
            "componentType" : 5126,
            "count" : 9240,
            "type" : "VEC2"
        },
        {
            "bufferView" : 3,
            "componentType" : 5123,
            "count" : 47616,
            "type" : "SCALAR"
        }
    ],
    "bufferViews" : [
        {
            "buffer" : 0,
            "byteLength" : 110880,
            "byteOffset" : 0
        },
        {
            "buffer" : 0,
            "byteLength" : 110880,
            "byteOffset" : 110880
        },
        {
            "buffer" : 0,
            "byteLength" : 73920,
            "byteOffset" : 221760
        },
        {
            "buffer" : 0,
            "byteLength" : 95232,
            "byteOffset" : 295680
        }
    ],
    "buffers" : [
        {
            "byteLength" : 390912,
            "uri" : "MaterialSphere.bin"
        }
    ]
}
